<?xml version="1.0" encoding="UTF-8"?>
<svg id="Layer_1" data-name="Layer 1" xmlns="http://www.w3.org/2000/svg" viewBox="0 0 566.93 566.93">
  <defs>
    <style>
      .cls-1 {
        fill: #f7f0de;
      }

      .cls-2 {
        fill: #2e4b3d;
      }
    </style>
  </defs>
  <rect class="cls-1" width="566.93" height="566.93"/>
  <path class="cls-2" d="M281.48,66.53c-3.82,6.02-9.7,83.32-9.7,125.93,0,14.55-.59,25.57-1.32,24.83-.59-.88-6.02-15.43-11.76-32.33-27.18-78.61-34.09-97.28-38.35-102.42-2.64-3.23-2.79-3.23-3.82-.59-2.35,6.02,7.2,60.1,15.72,89.05,2.5,8.52,7.35,24.69,11.02,35.85,3.53,11.31,6.17,20.72,5.88,21.16-.44.29-3.82-4.56-7.79-10.73-35.12-55.54-68.77-103.59-72.44-103.59-3.38,0-3.09,5.14.73,15.14,5.88,14.99,27.92,58.78,41.29,81.99,20.13,34.97,19.25,33.21,15.72,30.71-5.14-3.67-25.13-18.96-27.18-21.01-9.4-8.67-54.96-43.79-67.45-51.72-13.81-8.96-17.05-7.2-8.38,4.11,19.54,25.13,47.76,53.05,90.52,89.05,4.26,3.53,7.49,6.76,7.05,7.05-.73.88-9.55-1.91-42.76-13.52-38.06-13.22-69.06-22.34-80.08-23.66-15.14-1.62-11.61,2.35,14.4,16.46,23.8,12.78,61.86,28.51,93.6,38.65,10.58,3.38,20.43,6.76,22.04,7.35,1.47.59-26.3,1.03-62.01,1.03-35.71-.15-65.24.29-65.68.73-6.47,6.32,32.62,15.58,80.67,19.1,19.54,1.47,73.47,1.18,86.7-.59,2.94-.29,2.94.59,2.94,47.46-.15,29.24-1.18,65.1-2.79,92.28-2.35,38.21-2.5,44.82-.73,45.99,2.35,1.47,17.78,1.76,29.09.29l7.79-.88-.88-9.7c-3.23-33.21-5.58-78.03-6.32-122.84l-.88-51.43h50.55c41.14,0,53.49-.44,66.42-2.64,33.21-5.29,53.19-11.02,52.75-14.99-.44-2.79-23.66-3.67-77-2.79-29.83.44-54.07.59-54.07.15s3.82-1.91,8.52-3.23c28.51-8.08,51.72-16.46,83.32-29.98,18.22-7.79,50.7-25.86,50.7-28.21,0-3.09-4.85-2.94-18.07.15-15.28,3.67-68.48,20.28-96.98,30.12-10.43,3.67-19.1,6.61-19.54,6.61-2.64,0,1.76-4.41,16.6-16.31,31.89-25.57,61.28-54.22,81.85-79.64,6.61-8.38,7.35-11.31,2.94-11.31-3.38,0-21.01,12.49-47.17,33.21-31.45,25.13-53.05,41.73-53.78,41.73-.44,0,2.2-5.14,5.73-11.46,11.46-19.84,43.94-85.81,48.05-97.57,4.7-13.22,4.85-14.4,1.32-14.4-3.82,0-16.31,17.05-42.91,58.78-7.49,11.76-16.46,25.57-19.84,30.86s-8.23,12.78-10.73,16.9c-2.5,3.97-4.7,6.32-4.7,5.14s3.09-13.81,6.76-27.92c10.73-41.14,12.2-47.61,17.63-73.18,7.35-35.41,8.08-48.2,2.5-44.67-2.35,1.62-21.6,53.05-36.59,98.01-7.49,22.63-13.96,40.12-14.4,38.94-.29-1.18-1.03-20.72-1.47-43.35-.44-22.63-1.47-50.7-2.5-62.45-2.5-32.92-6.91-51.87-10.73-45.7ZM285.45,145.58c1.32,24.69,1.03,82.73-.29,96.69-1.03,9.85-1.18,10.14-2.79,6.02-3.09-7.35-2.06-122.84,1.18-122.84.59,0,1.47,8.96,1.91,20.13ZM245.33,172.47c6.61,19.84,15.87,47.02,20.72,60.39,12.49,35.27,14.25,53.19,2.06,21.89-9.11-23.36-10.43-27.48-20.57-60.98-11.31-37.62-17.05-60.25-14.84-57.9.44.29,6.02,16.75,12.64,36.59ZM325.57,170.41c-12.78,52.02-22.04,81.85-28.8,94.19l-3.09,5.58.59-6.76c.73-7.93,23.95-83.46,32.18-104.62,3.09-7.93,2.64-2.64-.88,11.61ZM228.58,213.76c28.65,44.52,31.89,50.11,31.15,53.93-.88,4.26-21.75-25.72-37.62-54.07-4.85-8.52-10.29-18.07-12.05-21.31-5.73-9.85-11.76-21.89-11.76-23.51,0-1.32,13.37,18.37,30.27,44.96ZM354.07,200.24c-12.34,24.1-29.83,51.87-40.85,64.51l-3.38,3.97.73-3.97c1.62-7.35,3.38-10.58,21.01-37.47,9.55-14.69,20.87-32.47,25.27-39.38,4.26-6.91,8.23-12.34,8.52-11.9.44.29-4.7,11.17-11.31,24.25ZM191.41,224.93c14.69,12.05,32.47,26.6,39.23,32.33,11.9,10.14,22.04,21.01,19.54,21.01-2.06,0-38.79-29.68-56.28-45.55-22.63-20.57-31.89-29.39-30.56-29.39.59,0,13.22,9.7,28.07,21.6ZM395.07,212.59c-16.9,16.02-76.12,64.8-77.15,63.77-.44-.29,2.2-3.97,5.58-8.08,6.32-7.35,13.37-13.37,24.83-21.6,3.38-2.5,16.75-12.78,29.83-23.22,12.93-10.29,23.95-18.66,24.39-18.66.44.15-2.94,3.53-7.49,7.79ZM157.9,257.55c15.28,5,76.12,26.16,81.99,28.51,5,2.2,7.93,4.7,3.67,3.23-1.03-.29-9.11-2.64-18.07-5.14-25.27-7.35-84.2-29.24-78.61-29.24,1.18-.15,6.17,1.18,11.02,2.64ZM412.85,258.43c0,2.64-76.85,28.8-83.9,28.65-3.53-.15,1.76-2.5,19.4-8.82,15.72-5.73,60.98-20.28,63.48-20.43.59-.15,1.03.15,1.03.59ZM242.54,306.19c2.5,1.03-8.23,1.32-36.15.73-39.97-.73-55.54-1.76-54.52-3.53,1.03-1.47,86.99,1.18,90.66,2.79ZM409.32,305.01c-14.25,2.06-68.03,4.11-78.76,2.94l-11.02-1.18,11.02-1.18c14.11-1.47,80.82-3.38,83.76-2.5,1.18.44-1.03,1.32-5,1.91ZM287.36,332.2c-1.18,21.89,1.32,84.05,5,125.2,1.62,17.34,2.94,32.47,2.94,33.5,0,1.32-2.79,1.91-10.43,1.91h-10.58l1.03-13.67c.59-7.35,1.62-22.19,2.35-32.62.88-10.58,1.91-44.38,2.5-75.38l.88-56.13h7.35l-1.03,17.19Z"/>
</svg>